<mxfile host="app.diagrams.net" modified="2024-02-04T03:20:30.794Z" agent="Mozilla/5.0 (Windows NT 10.0; Win64; x64) AppleWebKit/537.36 (KHTML, like Gecko) Chrome/121.0.0.0 Safari/537.36" version="22.1.15" etag="TS6ARa7VZicMph0YKebh" type="github">
  <diagram name="第 1 页" id="V9_My_NQM6y-ZnFKmis-">
    <mxGraphModel>
      <root>
        <mxCell id="0" />
        <mxCell id="1" parent="0" />
      </root>
    </mxGraphModel>
  </diagram>
</mxfile>
